<?xml version="1.0" encoding="utf-8"?>
<!-- Generator: Adobe Illustrator 22.0.0, SVG Export Plug-In . SVG Version: 6.00 Build 0)  -->
<svg version="1.1" id="Layer_1" xmlns="http://www.w3.org/2000/svg" xmlns:xlink="http://www.w3.org/1999/xlink" x="0px" y="0px"
	 viewBox="0 0 512 512" style="enable-background:new 0 0 512 512;" xml:space="preserve">
<style type="text/css">
	.st0{fill:#64E1DC;}
	.st1{fill:#FDBF00;}
	.st2{fill:#FF80AC;}
</style>
<g>
	<path class="st0" d="M410.9,300.1v63H256v-63H410.9z"/>
	<path class="st1" d="M256,237.1h154.9v63H256V237.1z"/>
	<path class="st2" d="M398.3,174.1V149h-37.8v25.2h-54.1V149h-37.8v25.2H256v63h154.9v-63H398.3z"/>
	<path class="st1" d="M101.1,300.1H256v63H101.1V300.1z"/>
	<path class="st2" d="M230.8,237.1v-25.2H193v25.2h-41.6v-25.2h-37.8v25.2h-12.6v63H256v-63H230.8z"/>
	<path d="M410.9,167.9h-6.3V149c0-3.5-2.8-6.3-6.3-6.3h-37.8c-3.5,0-6.3,2.8-6.3,6.3v18.9h-41.6V149c0-3.5-2.8-6.3-6.3-6.3h-37.8
		c-3.5,0-6.3,2.8-6.3,6.3v18.9H256c-3.5,0-6.3,2.8-6.3,6.3v56.7h-12.6v-18.9c0-3.5-2.8-6.3-6.3-6.3H193c-3.5,0-6.3,2.8-6.3,6.3v18.9
		h-29v-18.9c0-3.5-2.8-6.3-6.3-6.3h-37.8c-3.5,0-6.3,2.8-6.3,6.3v18.9h-6.3c-3.5,0-6.3,2.8-6.3,6.3V363c0,3.5,2.8,6.3,6.3,6.3h309.8
		c3.5,0,6.3-2.8,6.3-6.3c0-21.3,0-170.4,0-188.9C417.2,170.7,414.4,167.9,410.9,167.9z M262.3,243.4h142.3v50.4H262.3V243.4z
		 M366.8,155.3H392v12.6h-25.2V155.3z M274.9,155.3h25.2v12.6h-25.2V155.3z M404.6,180.4v50.4H262.3v-50.4H404.6z M199.3,218.2h25.2
		v12.6h-25.2V218.2z M120,218.2h25.2v12.6H120V218.2z M107.4,306.4h29c3.5,0,6.3-2.8,6.3-6.3s-2.8-6.3-6.3-6.3h-29v-50.4h142.3v50.4
		h-63c-3.5,0-6.3,2.8-6.3,6.3s2.8,6.3,6.3,6.3h63v50.4H107.4V306.4z M404.6,356.7H262.3v-50.4h142.3V356.7z"/>
	<path d="M161.6,293.8c-3.5,0-6.3,2.8-6.3,6.3c0,3.5,2.8,6.3,6.3,6.3s6.3-2.8,6.3-6.3C167.9,296.6,165,293.8,161.6,293.8z"/>
</g>
</svg>
